<svg xmlns="http://www.w3.org/2000/svg" width="24" height="14" viewBox="0 0 24 14" fill="none">
  <path d="M9 12.848C9.55228 12.848 10 12.5954 10 12.2838C10 11.9722 9.55228 11.7196 9 11.7196C8.44772 11.7196 8 11.9722 8 12.2838C8 12.5954 8.44772 12.848 9 12.848Z" stroke="white" stroke-width="2" stroke-linecap="round" stroke-linejoin="round"/>
  <path d="M20 12.848C20.5523 12.848 21 12.5954 21 12.2838C21 11.9722 20.5523 11.7196 20 11.7196C19.4477 11.7196 19 11.9722 19 12.2838C19 12.5954 19.4477 12.848 20 12.848Z" stroke="white" stroke-width="2" stroke-linecap="round" stroke-linejoin="round"/>
  <path d="M1 1H5L7.68 8.55452C7.77144 8.81427 8.02191 9.0476 8.38755 9.21366C8.75318 9.37973 9.2107 9.46794 9.68 9.46287H19.4C19.8693 9.46794 20.3268 9.37973 20.6925 9.21366C21.0581 9.0476 21.3086 8.81427 21.4 8.55452L23 3.82096H6" stroke="white" stroke-width="2" stroke-linecap="round" stroke-linejoin="round"/>
</svg>
