<svg xmlns="http://www.w3.org/2000/svg" width="24" height="13" viewBox="0 0 24 13" fill="none">
  <path d="M16 1H1V8.33447H16V1Z" stroke="white" stroke-width="2" stroke-linecap="round" stroke-linejoin="round"/>
  <path d="M16 3.82092H20L23 5.5135V8.33447H16V3.82092Z" stroke="white" stroke-width="2" stroke-linecap="round" stroke-linejoin="round"/>
  <path d="M5.5 11.1554C6.88071 11.1554 8 10.5239 8 9.74493C8 8.96596 6.88071 8.33447 5.5 8.33447C4.11929 8.33447 3 8.96596 3 9.74493C3 10.5239 4.11929 11.1554 5.5 11.1554Z" stroke="white" stroke-width="2" stroke-linecap="round" stroke-linejoin="round"/>
  <path d="M18.5 11.1554C19.8807 11.1554 21 10.5239 21 9.74493C21 8.96596 19.8807 8.33447 18.5 8.33447C17.1193 8.33447 16 8.96596 16 9.74493C16 10.5239 17.1193 11.1554 18.5 11.1554Z" stroke="white" stroke-width="2" stroke-linecap="round" stroke-linejoin="round"/>
</svg>
