<svg width="32" height="45" viewBox="0 0 32 45" fill="none" xmlns="http://www.w3.org/2000/svg">
<path d="M23.0915 0C23.0915 0 26.802 9.69206 10.8998 16.2021C2.25892 19.7386 -4.37778 28.8028 3.54643 42.8047C4.20269 36.5461 7.01666 22.7466 19.1166 19.5977C19.1166 19.5977 7.85471 24.0941 6.85987 44.4471C12.6467 45.3146 26.2185 45.8975 30.2479 33.3222C35.5688 16.7074 23.0915 0 23.0915 0Z" fill="#8DCE97"/>
<path d="M6.86512 44.3624C19.1501 39.1275 28.0889 26.8641 29.3226 12.2243C26.8111 4.99102 23.0915 0 23.0915 0C23.0915 0 26.802 9.69205 10.8998 16.2021C2.25892 19.7386 -4.37778 28.8028 3.54643 42.8047C4.20269 36.5461 7.01666 22.7466 19.1166 19.5977C19.1159 19.5977 7.88753 24.0829 6.86512 44.3624Z" fill="#8DCE97"/>
<path d="M2.32059 16.5252C2.95487 16.5252 3.46906 15.9762 3.46906 15.2989C3.46906 14.6217 2.95487 14.0728 2.32059 14.0728C1.68631 14.0728 1.17212 14.6217 1.17212 15.2989C1.17212 15.9762 1.68631 16.5252 2.32059 16.5252Z" fill="#8DCE97"/>
<path d="M5.92991 14.9499C6.38295 14.9499 6.75021 14.5575 6.75021 14.0735C6.75021 13.5894 6.38295 13.197 5.92991 13.197C5.47688 13.197 5.10962 13.5894 5.10962 14.0735C5.10962 14.5575 5.47688 14.9499 5.92991 14.9499Z" fill="#8DCE97"/>
<path d="M5.19161 7.94153C6.32422 7.94153 7.24237 6.96119 7.24237 5.75189C7.24237 4.54259 6.32422 3.56226 5.19161 3.56226C4.05902 3.56226 3.14087 4.54259 3.14087 5.75189C3.14087 6.96119 4.05902 7.94153 5.19161 7.94153Z" fill="#8DCE97"/>
<path d="M11.508 11.4463C11.8705 11.4463 12.1643 11.1323 12.1643 10.7451C12.1643 10.3579 11.8705 10.0439 11.508 10.0439C11.1456 10.0439 10.8518 10.3579 10.8518 10.7451C10.8518 11.1323 11.1456 11.4463 11.508 11.4463Z" fill="#8DCE97"/>
<path d="M17.0046 8.81756C18.0466 8.81756 18.8913 7.91563 18.8913 6.80307C18.8913 5.6905 18.0466 4.78857 17.0046 4.78857C15.9626 4.78857 15.1179 5.6905 15.1179 6.80307C15.1179 7.91563 15.9626 8.81756 17.0046 8.81756Z" fill="#8DCE97"/>
</svg>
